<?xml version="1.0" encoding="UTF-8" standalone="no"?>
<svg width="461px" height="219px" viewBox="0 0 461 219" version="1.1" xmlns="http://www.w3.org/2000/svg" xmlns:xlink="http://www.w3.org/1999/xlink">
    <!-- Generator: Sketch 40.3 (33839) - http://www.bohemiancoding.com/sketch -->
    <title>Slice 1</title>
    <desc>Created with Sketch.</desc>
    <defs></defs>
    <g id="Page-1" stroke="none" stroke-width="1" fill="none" fill-rule="evenodd">
        <g id="AXON_Platform_R_Logo_CMYK_Black" fill="#1A1918">
            <path d="M212.891,192.081 C210.914,193.291 208.872,193.421 203.831,193.421 L196.623,193.421 L196.623,175.94 L203.831,175.94 C208.491,175.94 211.55,176.512 213.018,177.597 C214.486,178.683 215.252,181.109 215.252,184.87 C215.252,188.891 214.87,190.803 212.891,192.081 L212.891,192.081 Z M204.597,168.792 C198.984,168.792 193.88,168.984 189.35,169.306 C188.584,169.369 188.391,169.499 188.391,170.2 L188.391,216.965 C188.391,217.728 188.584,217.921 189.35,217.921 L195.664,217.921 C196.431,217.921 196.623,217.728 196.623,216.965 L196.623,199.993 L204.597,199.993 C210.66,199.993 214.169,199.676 217.293,198.46 C218.888,197.821 220.164,196.928 220.995,195.78 C222.717,193.421 223.546,190.039 223.546,184.678 C223.546,178.366 222.205,174.091 219.527,171.987 C216.847,169.878 211.87,168.792 204.597,168.792 L204.597,168.792 Z" id="Fill-1"></path>
            <path d="M236.585,169.114 L230.78,169.114 C230.141,169.114 229.824,169.431 229.824,170.07 L229.824,216.965 C229.824,217.604 230.141,217.921 230.78,217.921 L236.585,217.921 C237.224,217.921 237.543,217.604 237.543,216.965 L237.543,170.07 C237.543,169.431 237.224,169.114 236.585,169.114" id="Fill-2"></path>
            <path d="M265.175,211.094 C263.388,211.541 260.965,211.796 257.902,211.796 C253.053,211.796 251.458,210.84 251.458,207.266 C251.458,204.138 252.861,202.99 256.37,202.99 L265.175,202.99 L265.175,211.094 L265.175,211.094 Z M257.965,182.32 C253.946,182.32 250.437,182.574 247.44,183.151 C246.736,183.343 246.546,183.405 246.546,184.169 L246.546,188.06 C246.546,188.829 246.736,189.021 247.502,189.021 L257.965,189.021 C263.069,189.021 265.175,190.548 265.175,194.123 L265.175,197.442 L255.923,197.442 C247.567,197.442 243.803,199.863 243.803,207.583 C243.803,211.926 244.824,214.793 246.866,216.196 C248.907,217.536 252.352,218.238 257.263,218.238 C263.58,218.238 268.365,217.791 271.62,216.835 C272.448,216.518 272.895,215.941 272.895,214.985 L272.895,192.782 C272.895,185.639 268.877,182.32 257.965,182.32 L257.965,182.32 Z" id="Fill-3"></path>
            <path d="M297.413,211.541 L294.607,211.541 C291.48,211.541 290.651,210.965 290.651,208.159 L290.651,188.699 L296.966,188.699 C297.667,188.699 297.987,188.382 297.987,187.681 L297.987,183.66 C297.987,183.021 297.667,182.704 296.966,182.704 L290.651,182.704 L290.651,173.769 C290.651,172.943 290.267,172.688 289.566,172.875 L283.76,174.345 C283.186,174.47 282.867,174.792 282.867,175.364 L282.867,182.704 L279.23,182.704 C278.529,182.704 278.209,183.021 278.209,183.66 L278.209,187.681 C278.209,188.382 278.529,188.699 279.23,188.699 L282.867,188.699 L282.867,210.455 C283.121,215.115 284.527,216.965 287.332,217.728 C289.438,218.238 290.459,218.238 293.01,218.238 C294.35,218.238 295.883,218.113 297.54,217.791 C298.179,217.666 298.498,217.282 298.498,216.643 L298.498,212.435 C298.498,211.858 298.114,211.541 297.413,211.541" id="Fill-4"></path>
            <path d="M323.011,169.369 C320.715,168.984 318.608,168.792 316.759,168.792 C313.888,168.792 312.229,168.984 309.932,170.008 C307.699,171.026 306.488,173.39 306.488,176.958 L306.488,182.704 L302.148,182.704 C301.446,182.704 301.127,183.021 301.127,183.66 L301.127,187.805 C301.127,188.444 301.446,188.761 302.148,188.761 L306.488,188.761 L306.488,216.965 C306.488,217.604 306.805,217.921 307.444,217.921 L313.249,217.921 C313.888,217.921 314.208,217.604 314.208,216.965 L314.208,188.761 L321.161,188.761 C321.735,188.761 322.117,188.444 322.244,187.873 L323.011,183.722 C323.138,183.021 322.883,182.704 322.182,182.704 L314.208,182.704 L314.208,178.491 C314.208,175.94 315.356,175.493 318.738,175.493 L322.948,175.493 C323.65,175.493 323.969,175.177 323.969,174.538 L323.969,170.517 C323.969,169.878 323.65,169.499 323.011,169.369" id="Fill-5"></path>
            <path d="M347.204,209.437 C346.248,210.84 344.141,211.541 340.824,211.541 C337.507,211.541 335.401,210.84 334.445,209.437 C333.486,207.967 333.04,204.97 333.04,200.31 C333.04,195.655 333.486,192.658 334.445,191.187 C335.401,189.722 337.507,189.021 340.824,189.021 C344.141,189.021 346.248,189.722 347.204,191.187 C348.162,192.658 348.609,195.655 348.609,200.31 C348.609,204.97 348.162,207.967 347.204,209.437 L347.204,209.437 Z M340.824,182.32 C334.507,182.32 330.297,183.53 328.32,185.894 C326.341,188.252 325.32,193.037 325.32,200.31 C325.32,207.52 326.341,212.372 328.32,214.731 C330.297,217.089 334.507,218.238 340.824,218.238 C347.141,218.238 351.352,217.089 353.328,214.731 C355.37,212.372 356.391,207.52 356.391,200.31 C356.391,193.037 355.37,188.252 353.328,185.894 C351.352,183.53 347.141,182.32 340.824,182.32 L340.824,182.32 Z" id="Fill-6"></path>
            <path d="M381.994,183.021 C380.399,182.574 377.849,182.32 374.21,182.32 C371.339,182.32 369.49,182.512 367.129,183.53 C364.768,184.553 363.427,186.912 363.427,190.486 L363.427,216.965 C363.427,217.604 363.747,217.921 364.386,217.921 L370.191,217.921 C370.83,217.921 371.15,217.604 371.15,216.965 L371.15,192.465 C371.15,189.655 372.233,189.021 376.124,189.021 L381.932,189.021 C382.633,189.083 383.015,188.761 383.015,188.06 L383.015,184.169 C383.015,183.598 382.695,183.213 381.994,183.021" id="Fill-7"></path>
            <g id="Group-11" transform="translate(0.000000, 1.000000)">
                <path d="M422.011,181.257 C418.629,181.257 415.057,181.896 411.291,183.237 C408.548,181.959 404.912,181.32 400.319,181.32 C396.044,181.32 392.215,181.637 388.961,182.343 C388.324,182.468 388.005,182.79 388.005,183.361 L388.005,215.965 C388.07,216.604 388.387,216.921 388.961,216.921 L394.769,216.921 C395.405,216.921 395.724,216.604 395.724,215.965 L395.724,188.021 L401.148,188.021 C404.273,188.021 405.358,188.021 406.634,189.232 C407.909,190.317 408.166,192.421 408.166,196.567 L408.166,215.965 C408.166,216.604 408.486,216.921 409.122,216.921 L414.992,216.921 C415.567,216.921 415.821,216.604 415.821,215.965 L415.948,196.442 C415.948,193.06 415.631,190.38 414.992,188.468 C416.969,188.146 419.076,187.954 421.372,187.954 C425.52,187.954 426.86,188.276 427.689,191.081 C428.136,192.421 428.39,194.717 428.39,197.845 L428.39,215.965 C428.39,216.604 428.71,216.921 429.284,216.921 L435.089,216.921 C435.663,216.921 435.983,216.604 435.983,215.965 L436.11,195.419 C436.11,189.356 435.344,185.85 432.985,183.808 C430.624,181.766 427.624,181.257 422.011,181.257" id="Fill-8"></path>
                <path d="M86.253,69.098 C85.611,71.441 84.144,71.918 82.845,72.162 L72.901,74.384 L34.394,83.72 L50.3,25.786 C52.171,19.485 52.342,18.807 56.257,18.807 C60.852,18.807 61.023,19.485 62.894,25.786 L72.545,61.944 L72.555,61.979 L73.648,66.075 L84.306,66.075 C85.207,66.075 86.918,66.673 86.253,69.098 L86.253,69.098 Z M209.257,131.318 C212.15,131.318 212.834,130.129 211.13,127.573 L168.235,63.571 L207.556,4.847 C209.088,2.294 208.576,1.104 205.683,1.104 L187.3,1.104 C185.428,1.104 183.895,1.954 182.706,3.826 L155.3,45.872 L128.065,3.826 C126.873,1.954 125.34,1.104 123.47,1.104 L105.085,1.104 C102.192,1.104 101.682,2.294 103.212,4.847 L142.533,63.571 L108.542,114.287 L82.981,20.169 C80.427,11.144 77.704,5.697 74.811,3.486 C71.917,1.275 65.789,0.25 56.257,0.25 C47.234,0.25 41.278,1.446 38.383,3.657 C35.49,5.868 32.936,11.315 30.384,20.169 L0.085,128.595 C-0.255,130.469 0.425,131.318 2.128,131.318 L19.661,131.318 C20.681,131.318 21.361,130.469 21.873,128.595 L27.01,110.239 L18.477,110.239 C17.576,110.239 15.865,109.642 16.53,107.216 C17.172,104.873 18.638,104.396 19.938,104.153 L29.252,102.172 L80.597,91.999 L82.916,100.45 L82.917,100.453 L90.641,128.595 C91.152,130.469 91.833,131.318 93.023,131.318 L119.893,131.318 C121.766,131.318 123.299,130.466 124.491,128.596 L155.3,81.275 L186.28,128.596 C187.469,130.466 189.002,131.318 190.875,131.318 L209.257,131.318 L209.257,131.318 Z" id="Fill-10"></path>
            </g>
            <path d="M237.491,104.743 C233.577,98.447 231.535,86.021 231.535,67.464 C231.535,48.913 233.577,36.316 237.491,30.019 C241.408,23.552 249.918,20.315 262.853,20.315 C275.791,20.315 284.301,23.552 288.218,30.019 C292.301,36.316 294.345,48.913 294.345,67.464 C294.345,86.021 292.301,98.447 288.218,104.743 C284.301,111.04 275.791,114.105 262.853,114.105 C249.918,114.105 241.408,111.04 237.491,104.743 L237.491,104.743 Z M305.408,119.211 C313.748,108.827 316.301,93.85 316.301,67.464 C316.301,41.085 313.748,25.765 305.408,15.38 C297.239,4.658 284.641,1.252 262.853,1.252 C241.237,1.252 228.642,4.658 220.301,15.38 C211.961,25.765 209.408,41.085 209.408,67.464 C209.408,93.507 211.961,108.827 220.301,119.211 C228.642,129.596 241.237,133.17 262.853,133.17 C284.641,133.17 297.239,129.596 305.408,119.211 L305.408,119.211 Z" id="Fill-12"></path>
            <path d="M433.557,2.104 L416.876,2.104 C415.174,2.104 414.322,2.954 414.322,4.658 L414.322,92.998 L356.619,7.38 C353.726,3.125 352.534,2.273 346.406,2.104 L332.278,2.104 C330.577,2.104 329.725,2.954 329.725,4.658 L329.725,129.596 C329.725,131.466 330.577,132.318 332.278,132.318 L349.128,132.318 C350.832,132.318 351.682,131.466 351.682,129.596 L351.682,36.825 L413.302,128.573 C415.003,131.129 417.387,132.318 420.45,132.318 L433.557,132.318 C435.258,132.318 436.11,131.466 436.11,129.596 L436.11,4.658 C436.11,2.954 435.258,2.104 433.557,2.104" id="Fill-13"></path>
            <path d="M451.522,174.472 L451.522,177.376 L452.707,177.376 C454.15,177.376 454.534,177.137 454.534,175.934 C454.534,174.73 454.15,174.472 452.707,174.472 L451.522,174.472 L451.522,174.472 Z M455.33,173.742 C455.785,174.107 456.019,174.838 456.019,175.891 C456.019,177.526 455.593,178.191 454.319,178.388 L456.192,181.357 C456.258,181.465 456.234,181.507 456.108,181.507 L454.838,181.507 C454.707,181.507 454.6,181.442 454.534,181.334 L452.731,178.472 L451.522,178.472 L451.522,181.376 C451.522,181.465 451.48,181.507 451.415,181.507 L450.169,181.507 C450.103,181.507 450.061,181.465 450.061,181.376 L450.061,173.395 C450.061,173.329 450.103,173.287 450.169,173.287 C450.899,173.222 451.803,173.18 452.857,173.18 C454.061,173.18 454.881,173.372 455.33,173.742 L455.33,173.742 Z M445.799,177.292 C445.799,179.723 446.38,181.526 447.522,182.692 C448.661,183.854 450.45,184.435 452.881,184.435 C455.311,184.435 457.073,183.854 458.215,182.692 C459.354,181.526 459.934,179.723 459.934,177.292 C459.934,172.407 457.719,170.168 452.881,170.168 C447.995,170.168 445.799,172.383 445.799,177.292 L445.799,177.292 Z M444.745,177.292 C444.745,171.676 447.284,169.114 452.881,169.114 C458.45,169.114 460.993,171.676 460.993,177.292 C460.993,182.903 458.45,185.489 452.881,185.489 C447.284,185.489 444.745,182.903 444.745,177.292 L444.745,177.292 Z" id="Fill-14"></path>
        </g>
    </g>
</svg>