
<svg width="905px" height="247px" viewBox="0 0 905 247" version="1.1" xmlns="http://www.w3.org/2000/svg" xmlns:xlink="http://www.w3.org/1999/xlink">
    <!-- Generator: Sketch 40.3 (33839) - http://www.bohemiancoding.com/sketch -->
    <desc>Created with Sketch.</desc>
    <defs>
        <polygon id="path-1" points="816.507 246.94 0 246.94 0 0.012 408.2535 0.012 816.507 0.012"></polygon>
    </defs>
    <g id="AXON_Logo" stroke="none" stroke-width="1" fill="none" fill-rule="evenodd">
        <g id="Group-6">
            <mask id="mask-2" fill="white">
                <use xlink:href="#path-1"></use>
            </mask>
            <g id="Clip-2"></g>
            <path d="M385.09,1.611 C390.507,1.611 391.465,3.839 388.596,8.619 L314.978,118.565 L395.288,238.392 C398.478,243.177 397.199,245.404 391.781,245.404 L357.365,245.404 C353.859,245.404 350.989,243.809 348.762,240.308 L290.76,151.712 L233.078,240.308 C230.846,243.809 227.977,245.404 224.471,245.404 L190.054,245.404 C184.637,245.404 183.363,243.177 186.548,238.392 L266.858,118.565 L193.24,8.619 C190.375,3.839 191.328,1.611 196.746,1.611 L231.167,1.611 C234.669,1.611 237.538,3.202 239.77,6.708 L290.76,85.427 L342.071,6.708 C344.298,3.202 347.167,1.611 350.673,1.611 L385.09,1.611" id="Fill-1" fill="#d9d9d9" mask="url(#mask-2)"></path>
            <path d="M444.643,193.778 C451.977,205.566 467.909,211.304 492.127,211.304 C516.35,211.304 532.282,205.566 539.615,193.778 C547.26,181.989 551.087,158.724 551.087,123.982 C551.087,89.25 547.26,65.664 539.615,53.875 C532.282,41.766 516.35,35.707 492.127,35.707 C467.909,35.707 451.977,41.766 444.643,53.875 C437.315,65.664 433.492,89.25 433.492,123.982 C433.492,158.724 437.315,181.989 444.643,193.778 L444.643,193.778 Z M571.799,26.467 C587.415,45.91 592.195,74.592 592.195,123.982 C592.195,173.382 587.415,201.422 571.799,220.865 C556.505,240.308 532.919,247 492.127,247 C451.656,247 428.075,240.308 412.459,220.865 C396.844,201.422 392.063,172.74 392.063,123.982 C392.063,74.592 396.844,45.91 412.459,26.467 C428.075,6.392 451.656,0.016 492.127,0.016 C532.919,0.016 556.505,6.392 571.799,26.467 L571.799,26.467 Z" id="Fill-3" fill="#d9d9d9" mask="url(#mask-2)"></path>
            <path d="M811.726,1.611 C814.912,1.611 816.507,3.202 816.507,6.392 L816.507,240.308 C816.507,243.809 814.912,245.404 811.726,245.404 L787.187,245.404 C781.453,245.404 776.989,243.177 773.804,238.392 L658.436,66.617 L658.436,240.308 C658.436,243.809 656.846,245.404 653.655,245.404 L622.108,245.404 C618.923,245.404 617.328,243.809 617.328,240.308 L617.328,6.392 C617.328,3.202 618.923,1.611 622.108,1.611 L648.559,1.611 C660.031,1.928 662.263,3.523 667.681,11.488 L775.715,171.787 L775.715,6.392 C775.715,3.202 777.31,1.611 780.495,1.611 L811.726,1.611" id="Fill-4" fill="#d9d9d9" mask="url(#mask-2)"></path>
            <path d="M64.394,156.289 L94.174,47.823 C97.678,36.025 97.998,34.756 105.326,34.756 C113.93,34.756 114.25,36.025 117.754,47.823 L135.823,115.519 L135.841,115.584 L137.888,123.254 L157.841,123.254 C159.528,123.254 162.732,124.372 161.487,128.914 C160.285,133.3 157.54,134.192 155.106,134.649 L136.489,138.809 L64.394,156.289 L64.394,156.289 Z M150.898,171.789 L155.24,187.612 L155.242,187.617 L169.702,240.306 C170.659,243.815 171.934,245.404 174.163,245.404 L206.67,245.404 C209.856,245.404 211.131,243.815 210.494,240.306 L155.362,37.305 C150.58,20.408 145.481,10.21 140.065,6.071 C134.646,1.932 123.173,0.012 105.326,0.012 C88.435,0.012 77.282,2.252 71.863,6.391 C66.447,10.53 61.665,20.728 56.886,37.305 L0.159,240.306 C-0.478,243.815 0.797,245.404 3.984,245.404 L36.81,245.404 C38.719,245.404 39.994,243.815 40.952,240.306 L50.569,205.939 L34.594,205.939 C32.907,205.939 29.703,204.821 30.948,200.279 C32.15,195.892 34.896,195 37.329,194.544 L54.767,190.836 L150.898,171.789 L150.898,171.789 Z" id="Fill-5" fill="#d9d9d9" mask="url(#mask-2)"></path>
        </g>
        <path d="M900.947,1.509 C901.381,1.509 901.598,1.788 901.598,2.284 L904.435,33.475 C904.435,33.831 904.296,34.048 903.939,34.048 L900.172,34.048 C899.878,34.048 899.676,33.831 899.598,33.475 L897.537,9.989 L888.7,32.56 C888.561,32.917 888.282,33.118 887.848,33.118 L884.933,33.118 C884.499,33.118 884.22,32.917 884.081,32.56 L875.245,9.989 L873.183,33.475 C873.183,33.831 873.043,34.048 872.687,34.048 L868.904,34.048 C868.548,34.048 868.331,33.831 868.331,33.475 L871.183,2.145 C871.26,1.726 871.4,1.509 871.756,1.509 L875.384,1.509 C876.314,1.509 877.027,2.083 877.446,3.153 L886.36,26.499 L895.32,3.153 C895.754,2.083 896.467,1.509 897.397,1.509 L900.947,1.509 L900.947,1.509 Z M865.912,1.509 C866.269,1.509 866.486,1.726 866.486,2.145 L866.486,5.276 C866.486,5.633 866.269,5.772 865.912,5.772 L856.378,5.772 L856.378,33.552 C856.378,33.909 856.239,34.048 855.882,34.048 L852.1,34.048 C851.743,34.048 851.526,33.909 851.526,33.552 L851.526,5.772 L841.992,5.772 C841.636,5.772 841.496,5.633 841.496,5.276 L841.496,2.145 C841.496,1.726 841.636,1.509 841.992,1.509 L865.912,1.509 L865.912,1.509 Z" id="Fill-7" fill="#d9d9d9"></path>
    </g>
</svg>