<svg id="System_Not_availbale" data-name="System Not availbale" xmlns="http://www.w3.org/2000/svg" viewBox="0 0 32 32"><defs><style>.cls-1{fill:#595a5a;fill-rule:evenodd;}</style></defs><title>ic-gateway-not-available</title><path class="cls-1" d="M29.54,8H17.36L30.54,29.84A4.55,4.55,0,0,0,34,25.38V12.55A4.52,4.52,0,0,0,29.54,8ZM6.43,8A4.52,4.52,0,0,0,2,12.55V25.38A4.52,4.52,0,0,0,6.43,30H27.07L13.8,8Zm7.11,19.25h-8V19.88A9.07,9.07,0,0,1,10.82,22C13.66,24.76,13.54,27.22,13.54,27.22Z" transform="translate(-1.98 -1.37)"/><polyline class="cls-1" points="24.27 33.17 4.27 0 7.82 0 27.82 33.17"/></svg>