<?xml version="1.0" encoding="utf-8"?>
<!-- Generator: Adobe Illustrator 21.0.0, SVG Export Plug-In . SVG Version: 6.00 Build 0)  -->
<svg version="1.1" xmlns="http://www.w3.org/2000/svg" xmlns:xlink="http://www.w3.org/1999/xlink" x="0px" y="0px"
	 viewBox="0 0 36 36" style="enable-background:new 0 0 36 36;" xml:space="preserve">
<style type="text/css">
	.st0{display:none;}
	.st1{display:inline;}
	.st2{fill-rule:evenodd;clip-rule:evenodd;fill:#595A5A;}
	.st3{fill-rule:evenodd;clip-rule:evenodd;fill:#FFFFFF;}
	.st4{display:inline;fill-rule:evenodd;clip-rule:evenodd;fill:#595A5A;}
</style>
<g id="Online" class="st0">
	<g class="st1">
		<g>
			<path class="st2" d="M29.5,8H6.4C4,8,2,10,2,12.6v12.8C2,27.9,4,30,6.4,30h23.1c2.5,0,4.4-2.1,4.4-4.6V12.6C34,10,32,8,29.5,8z
				 M13.5,27.2h-8v-7.3c0,0,3.3,0.1,5.3,2.1C13.7,24.8,13.5,27.2,13.5,27.2z M25.1,18.1v9.2h-3.6v-9.2h-4.4l6.2-8.2l6.2,8.2H25.1z"
				/>
		</g>
	</g>
</g>
<g id="Offline" class="st0">
	<g class="st1">
		<g>
			<path class="st2" d="M29.5,8H6.4C4,8,2,10,2,12.6v12.8C2,27.9,4,30,6.4,30h23.1c2.5,0,4.4-2.1,4.4-4.6V12.6C34,10,32,8,29.5,8z
				 M13.5,27.2h-8v-7.3c0,0,3.3,0.1,5.3,2.1C13.7,24.8,13.5,27.2,13.5,27.2z M23.3,27.2L17.1,19h4.4V9.8h3.6V19h4.4L23.3,27.2z"/>
		</g>
	</g>
</g>
<g id="Unknown">
	<g>
		<g>
			<path class="st2" d="M29.5,8H6.4C4,8,2,10,2,12.6v12.8C2,27.9,4,30,6.4,30h23.1c2.5,0,4.4-2.1,4.4-4.6V12.6C34,10,32,8,29.5,8z
				 M13.5,27.2h-8v-7.3c0,0,3.3,0.1,5.3,2.1C13.7,24.8,13.5,27.2,13.5,27.2z"/>
		</g>
	</g>
	<circle class="st3" cx="26.4" cy="15.2" r="3.1"/>
</g>
<g id="System_Not_availbale" class="st0">
	<g class="st1">
		<g>
			<path class="st2" d="M29.5,8H17.4l13.2,21.9c2-0.5,3.4-2.3,3.4-4.5V12.6C34,10,32,8,29.5,8z M6.4,8C4,8,2,10,2,12.6v12.8
				C2,27.9,4,30,6.4,30h20.6L13.8,8H6.4z M13.5,27.2h-8v-7.3c0,0,3.3,0.1,5.3,2.1C13.7,24.8,13.5,27.2,13.5,27.2z"/>
		</g>
	</g>
	<polyline class="st4" points="26.3,34.5 6.3,1.4 9.8,1.4 29.8,34.5 	"/>
</g>
</svg>
